# xmcd CD database file
#
# Track frame offsets:
#	150
#	12855
#	26244
#	41218
#	54269
#	67886
#	80608
#	93126
#	105081
#	119658
#	134813
#	149280
#	163094
#	174783
#	190057
#
# Disc length: 2718 seconds
#
# Revision: 0
# Processed by: cddbd v1.5.1PL0 Copyright (c) Steve Scherf et al.
# Submitted via: CDex 1.51
#
DISCID=c40a9c0f
DTITLE=Benny carter - just jazz
DYEAR=1900
DGENRE=Jazz
TTITLE0=sugar
TTITLE1=melancholy lullaby
TTITLE2=scandal in a flat
TTITLE3=when lights are low
TTITLE4=the favor of a fool
TTITLE5=more than you know
TTITLE6=on the bumpy road to love
TTITLE7=smack
TTITLE8=stardust
TTITLE9=keep a song in your soul
TTITLE10=among my souvenirs
TTITLE11=i'm comming, virginia
TTITLE12=bnlues in my heart
TTITLE13=six or seven times
TTITLE14=these foolish things
EXTD=
EXTT0=
EXTT1=
EXTT2=
EXTT3=
EXTT4=
EXTT5=
EXTT6=
EXTT7=
EXTT8=
EXTT9=
EXTT10=
EXTT11=
EXTT12=
EXTT13=
EXTT14=
PLAYORDER=
